<?xml version="1.0" encoding="utf-8"?>
<!-- Generator: Adobe Illustrator 24.1.2, SVG Export Plug-In . SVG Version: 6.00 Build 0)  -->
<svg version="1.1" xmlns="http://www.w3.org/2000/svg" xmlns:xlink="http://www.w3.org/1999/xlink" x="0px" y="0px"
	 viewBox="0 0 750 500" style="enable-background:new 0 0 750 500;" xml:space="preserve">
<style type="text/css">
	.st0{fill:#263238;stroke:#FFFFFF;stroke-miterlimit:10;}
	.st1{clip-path:url(#SVGID_2_);fill:none;stroke:#606060;stroke-miterlimit:10;}
	.st2{clip-path:url(#SVGID_2_);fill:#B8E3DB;}
	.st3{clip-path:url(#SVGID_2_);fill:#FFCF54;}
	.st4{clip-path:url(#SVGID_2_);fill:#CEF0E6;}
	.st5{clip-path:url(#SVGID_2_);}
	.st6{fill:#31346B;}
	.st7{clip-path:url(#SVGID_2_);fill:#31346B;}
	.st8{clip-path:url(#SVGID_2_);fill:none;stroke:#FFFFFF;stroke-width:3;stroke-linecap:round;stroke-miterlimit:10;}
	.st9{clip-path:url(#SVGID_2_);fill:#F7F3EA;}
	.st10{clip-path:url(#SVGID_2_);fill:#FFFFFF;}
	.st11{clip-path:url(#SVGID_2_);fill:none;stroke:#31346B;stroke-width:3;stroke-linecap:round;stroke-miterlimit:10;}
</style>
<g id="BACKGROUND">
	<rect class="st0" width="750" height="500"/>
</g>
<g id="OBJECTS">
	<g>
		<defs>
			<rect id="SVGID_1_" y="0" width="750" height="500"/>
		</defs>
		<use xlink:href="#SVGID_1_"  style="display:none;overflow:visible;fill:#FFFFFF;"/>
		<clipPath id="SVGID_2_">
			<use xlink:href="#SVGID_1_"  style="display:none;overflow:visible;"/>
		</clipPath>
		<line class="st1" x1="-49.21" y1="-77.24" x2="-86.37" y2="-77.24"/>
		<path class="st2" d="M249.24,0.92l26.22,26.22c18.18,18.18,47.66,18.18,65.84,0l15.02-15.02c3.17-3.17,8.31-3.17,11.48,0
			l0.15,0.15c3.3,3.3,3.3,8.59,0.03,11.86c-5.04,5.03-39.84,39.84-47.67,47.67c-16.58,16.58-16.59,43.47,0,60.05v0
			c16.58,16.58,43.47,16.58,60.05,0L525.86-13.64l32.03,4.36l-52.96,52.96c-23.12,23.12-23.12,60.6,0,83.71l0,0
			c23.12,23.12,60.6,23.12,83.71,0l80.98-80.98c3.52-3.52,9.22-3.52,12.74,0l0,0c3.52,3.52,3.52,9.22,0,12.74L562.44,179.08
			c-13.07,13.07-13.07,34.25,0,47.32v0c13.07,13.07,34.25,13.07,47.32,0l83.08-83.08c3.77-3.77,9.88-3.77,13.65,0l0,0
			c3.77,3.77,3.77,9.88,0,13.65l-1.45,1.45c-27.59,27.59-27.59,72.32,0,99.91l61.96,61.96V-39.08"/>
		
			<ellipse transform="matrix(0.09 -0.9959 0.9959 0.09 113.0842 124.1753)" class="st3" cx="124.49" cy="0.21" rx="64.93" ry="64.93"/>
		<circle class="st3" cx="657.7" cy="500.15" r="40.74"/>
		<path class="st2" d="M232.16,43.57c-20.58,0-37.32,16.74-37.32,37.31s16.74,37.32,37.32,37.32c20.58,0,37.31-16.74,37.31-37.32
			S252.74,43.57,232.16,43.57z M232.16,110.84c-16.55,0-29.97-13.41-29.97-29.96c0-16.55,13.41-29.96,29.97-29.96
			c16.55,0,29.96,13.41,29.96,29.96C262.12,97.42,248.71,110.84,232.16,110.84z"/>
		
			<ellipse transform="matrix(0.9239 -0.3827 0.3827 0.9239 -59.9645 287.6046)" class="st3" cx="692.96" cy="294.53" rx="17.56" ry="17.56"/>
		<circle class="st3" cx="216.24" cy="332.96" r="8.42"/>
		<circle class="st3" cx="234.26" cy="314.94" r="8.42"/>
		
			<ellipse transform="matrix(0.7071 -0.7071 0.7071 0.7071 -142.0743 61.9031)" class="st3" cx="3.69" cy="202.45" rx="17.56" ry="17.56"/>
		<path class="st4" d="M-14.19,314.22l81.97-81.97c18.38-18.38,48.17-18.38,66.55,0l0,0c18.38,18.38,18.38,48.17,0,66.55L97,336.13
			c-8.07,8.07-8.07,21.15,0,29.22l0,0c8.07,8.07,21.15,8.07,29.22,0l8.12-8.12c16.58-16.58,43.47-16.58,60.06,0l0,0
			c16.58,16.58,16.58,43.47,0,60.06l-33.27,33.27c-3.59,3.59-3.59,9.4,0,12.99v0c3.59,3.59,9.4,3.59,12.99,0l81.16-81.16
			c14.34-14.34,37.6-14.34,51.94,0v0c14.34,14.34,14.34,37.6,0,51.94l-21.91,21.91c-3.14,3.14-3.14,8.22,0,11.36v0
			c3.14,3.14,8.22,3.14,11.36,0l1.82-1.82c38.44-38.44,100.76-38.44,139.2,0l37.53,37.53h-607.87
			C-132.68,503.31-6.89,321.52-14.19,314.22z"/>
		<g class="st5">
			<path class="st6" d="M585.05,409.49L585.05,409.49c1.76-1.76,4.61-1.76,6.37,0l13.56,13.56c1.76,1.76,1.76,4.61,0,6.37l0,0
				c-1.76,1.76-4.61,1.76-6.37,0l-13.56-13.56C583.3,414.1,583.3,411.24,585.05,409.49z"/>
			<path class="st6" d="M604.99,409.49L604.99,409.49c1.76,1.76,1.76,4.61,0,6.37l-13.56,13.56c-1.76,1.76-4.61,1.76-6.37,0l0,0
				c-1.76-1.76-1.76-4.61,0-6.37l13.56-13.56C600.38,407.73,603.23,407.73,604.99,409.49z"/>
		</g>
		<g class="st5">
			<path class="st6" d="M207.02,194.19L207.02,194.19c1.14-1.14,3-1.14,4.14,0l8.82,8.82c1.14,1.14,1.14,3,0,4.14l0,0
				c-1.14,1.14-3,1.14-4.14,0l-8.82-8.82C205.87,197.19,205.87,195.34,207.02,194.19z"/>
			<path class="st6" d="M219.98,194.19L219.98,194.19c1.14,1.14,1.14,3,0,4.14l-8.82,8.82c-1.14,1.14-3,1.14-4.14,0l0,0
				c-1.14-1.14-1.14-3,0-4.14l8.82-8.82C216.98,193.05,218.84,193.05,219.98,194.19z"/>
		</g>
		<circle class="st7" cx="400.35" cy="112.05" r="19.08"/>
		<circle class="st7" cx="-26.83" cy="575.73" r="7.51"/>
		<circle class="st7" cx="55.16" cy="103.93" r="10.59"/>
		<g class="st5">
			<circle class="st6" cx="495.12" cy="165.64" r="3.16"/>
			<circle class="st6" cx="495.12" cy="182.13" r="3.16"/>
			<circle class="st6" cx="511.18" cy="165.64" r="3.16"/>
			<circle class="st6" cx="511.18" cy="182.13" r="3.16"/>
		</g>
		<g class="st5">
			<g>
				<circle class="st6" cx="45.68" cy="135.87" r="3.16"/>
				<circle class="st6" cx="45.68" cy="152.36" r="3.16"/>
				<circle class="st6" cx="61.74" cy="135.87" r="3.16"/>
				<circle class="st6" cx="61.74" cy="152.36" r="3.16"/>
			</g>
			<g>
				<circle class="st6" cx="13.17" cy="135.87" r="3.16"/>
				<circle class="st6" cx="13.17" cy="152.36" r="3.16"/>
				<circle class="st6" cx="29.23" cy="135.87" r="3.16"/>
				<circle class="st6" cx="29.23" cy="152.36" r="3.16"/>
			</g>
		</g>
		<g class="st5">
			<g>
				<g>
					<circle class="st6" cx="656.36" cy="411.07" r="3.16"/>
					<path class="st6" d="M659.52,427.56c0,1.74-1.41,3.16-3.16,3.16c-1.74,0-3.16-1.41-3.16-3.16c0-1.74,1.41-3.16,3.16-3.16
						C658.11,424.4,659.52,425.82,659.52,427.56z"/>
					<circle class="st6" cx="672.42" cy="411.07" r="3.16"/>
					<path class="st6" d="M675.58,427.56c0,1.74-1.41,3.16-3.16,3.16c-1.74,0-3.16-1.41-3.16-3.16c0-1.74,1.41-3.16,3.16-3.16
						C674.16,424.4,675.58,425.82,675.58,427.56z"/>
				</g>
				<g>
					<circle class="st6" cx="623.86" cy="411.07" r="3.16"/>
					<path class="st6" d="M627.01,427.56c0,1.74-1.41,3.16-3.16,3.16c-1.74,0-3.16-1.41-3.16-3.16c0-1.74,1.41-3.16,3.16-3.16
						C625.6,424.4,627.01,425.82,627.01,427.56z"/>
					<circle class="st6" cx="639.92" cy="411.07" r="3.16"/>
					<path class="st6" d="M643.07,427.56c0,1.74-1.41,3.16-3.16,3.16c-1.74,0-3.16-1.41-3.16-3.16c0-1.74,1.41-3.16,3.16-3.16
						C641.66,424.4,643.07,425.82,643.07,427.56z"/>
				</g>
			</g>
			<g>
				<g>
					<circle class="st6" cx="721.31" cy="411.07" r="3.16"/>
					<path class="st6" d="M724.47,427.56c0,1.74-1.41,3.16-3.16,3.16c-1.74,0-3.16-1.41-3.16-3.16c0-1.74,1.41-3.16,3.16-3.16
						C723.06,424.4,724.47,425.82,724.47,427.56z"/>
					<path class="st6" d="M740.53,411.07c0,1.74-1.41,3.16-3.16,3.16c-1.74,0-3.16-1.41-3.16-3.16c0-1.74,1.41-3.16,3.16-3.16
						C739.12,407.91,740.53,409.33,740.53,411.07z"/>
					<path class="st6" d="M740.53,427.56c0,1.74-1.41,3.16-3.16,3.16c-1.74,0-3.16-1.41-3.16-3.16c0-1.74,1.41-3.16,3.16-3.16
						C739.12,424.4,740.53,425.82,740.53,427.56z"/>
				</g>
				<g>
					<circle class="st6" cx="688.81" cy="411.07" r="3.16"/>
					<path class="st6" d="M691.96,427.56c0,1.74-1.41,3.16-3.16,3.16c-1.74,0-3.16-1.41-3.16-3.16c0-1.74,1.41-3.16,3.16-3.16
						C690.55,424.4,691.96,425.82,691.96,427.56z"/>
					<circle class="st6" cx="704.87" cy="411.07" r="3.16"/>
					<path class="st6" d="M708.02,427.56c0,1.74-1.41,3.16-3.16,3.16c-1.74,0-3.16-1.41-3.16-3.16c0-1.74,1.41-3.16,3.16-3.16
						C706.61,424.4,708.02,425.82,708.02,427.56z"/>
				</g>
			</g>
		</g>
		<circle class="st7" cx="232.48" cy="404.42" r="7.79"/>
		<circle class="st7" cx="652.43" cy="184.37" r="7.79"/>
		<line class="st8" x1="645.9" y1="135.63" x2="773.08" y2="8.44"/>
		<line class="st8" x1="418.63" y1="57.63" x2="485.22" y2="-8.97"/>
		<line class="st8" x1="-13.47" y1="417.04" x2="115.78" y2="287.78"/>
		<line class="st8" x1="127.06" y1="575.45" x2="242.91" y2="459.6"/>
		<line class="st8" x1="-76.95" y1="443.91" x2="38.9" y2="328.06"/>
		<circle class="st4" cx="163.6" cy="200.22" r="15.75"/>
		<circle class="st2" cx="456.09" cy="120.19" r="8.32"/>
		<circle class="st9" cx="720.77" cy="125.21" r="8.32"/>
		<circle class="st10" cx="73.73" cy="392.07" r="20.45"/>
		<path class="st2" d="M482.42,430.29c-38.58,0-69.97,31.38-69.97,69.96c0,38.58,31.39,69.97,69.97,69.97s69.96-31.39,69.96-69.97
			C552.37,461.67,520.99,430.29,482.42,430.29z M482.42,556.41c-31.04,0-56.18-25.15-56.18-56.17c0-31.02,25.15-56.17,56.18-56.17
			c31.02,0,56.17,25.15,56.17,56.17C538.59,531.26,513.44,556.41,482.42,556.41z"/>
		<path class="st2" d="M30.4,507.35c1.41-0.47,54.87-54.5,75.31-75.21c4.33-4.38,11.39-4.4,15.75-0.04l0,0
			c4.34,4.34,4.34,11.37,0,15.7l-16.8,16.8c-2.18,2.18-2.18,5.7,0,7.88h0c2.18,2.18,5.7,2.18,7.88,0l7-7
			c4.75-4.75,12.46-4.75,17.21,0h0c4.75,4.75,4.75,12.46,0,17.21h0c-2.01,2.01-2.01,5.28,0,7.29l19.69,19.69H28.65"/>
		<path class="st4" d="M630.91-9.2l-60.9,60.9c-5.65,5.65-5.65,14.81,0,20.47l0,0c5.65,5.65,14.81,5.65,20.47,0l32.54-32.54
			c1.95-1.95,5.1-1.95,7.05,0l0,0c1.95,1.95,1.95,5.1,0,7.05L619,57.73c-3.06,3.06-3.06,8.01,0,11.07l0,0
			c3.06,3.06,8.01,3.06,11.07,0l29.84-29.84c6.69-6.69,16.75-7.96,24.72-3.81c1.86,0.97,3.62,2.24,5.18,3.81l0.82,0.82l58.04-58.04
			C748.67-18.26,630.91-9.87,630.91-9.2z"/>
		<line class="st11" x1="299.24" y1="515.6" x2="443.92" y2="370.92"/>
		<line class="st11" x1="-92.09" y1="594.09" x2="52.58" y2="449.41"/>
		<line class="st11" x1="465.01" y1="-40.44" x2="347.83" y2="76.74"/>
		<line class="st11" x1="222.5" y1="92.52" x2="193.11" y2="121.91"/>
		<line class="st11" x1="390.71" y1="456.23" x2="418.92" y2="428.02"/>
		<path class="st4" d="M694.41,43.42l-4.59-4.46c0,0,49.27-55.73,50.42-56.88c1.16-1.16,35.49,3.74,35.49,3.74l-54.74,57.12
			C713.8,50.45,701.87,50.66,694.41,43.42z"/>
	</g>
</g>
</svg>
